<svg width="28" height="28" viewBox="0 0 28 28" fill="none" xmlns="http://www.w3.org/2000/svg">
<path d="M14 7.77778C12.7694 7.77778 11.5664 8.1427 10.5431 8.82641C9.51988 9.51012 8.72236 10.4819 8.25142 11.6189C7.78047 12.7558 7.65725 14.0069 7.89734 15.2139C8.13742 16.4209 8.73003 17.5296 9.60022 18.3998C10.4704 19.27 11.5791 19.8626 12.7861 20.1027C13.9931 20.3428 15.2442 20.2195 16.3811 19.7486C17.5181 19.2776 18.4899 18.4801 19.1736 17.4569C19.8573 16.4336 20.2222 15.2306 20.2222 14C20.2205 12.3503 19.5644 10.7686 18.3979 9.60212C17.2314 8.4356 15.6497 7.77949 14 7.77778ZM14 17.1111C13.3847 17.1111 12.7832 16.9286 12.2716 16.5868C11.7599 16.2449 11.3612 15.7591 11.1257 15.1906C10.8902 14.6221 10.8286 13.9965 10.9487 13.3931C11.0687 12.7896 11.365 12.2352 11.8001 11.8001C12.2352 11.365 12.7896 11.0687 13.3931 10.9487C13.9965 10.8286 14.6221 10.8902 15.1906 11.1257C15.7591 11.3612 16.2449 11.7599 16.5868 12.2716C16.9286 12.7832 17.1111 13.3847 17.1111 14C17.1111 14.8251 16.7833 15.6164 16.1999 16.1999C15.6164 16.7833 14.8251 17.1111 14 17.1111ZM20.2222 0H7.77778C5.71572 0.00240153 3.73881 0.822615 2.28071 2.28071C0.822615 3.73881 0.00240153 5.71572 0 7.77778V20.2222C0.00240153 22.2843 0.822615 24.2612 2.28071 25.7193C3.73881 27.1774 5.71572 27.9976 7.77778 28H20.2222C22.2843 27.9976 24.2612 27.1774 25.7193 25.7193C27.1774 24.2612 27.9976 22.2843 28 20.2222V7.77778C27.9976 5.71572 27.1774 3.73881 25.7193 2.28071C24.2612 0.822615 22.2843 0.00240153 20.2222 0ZM24.8889 20.2222C24.8889 21.4599 24.3972 22.6469 23.5221 23.5221C22.6469 24.3972 21.4599 24.8889 20.2222 24.8889H7.77778C6.5401 24.8889 5.35312 24.3972 4.47795 23.5221C3.60278 22.6469 3.11111 21.4599 3.11111 20.2222V7.77778C3.11111 6.5401 3.60278 5.35312 4.47795 4.47795C5.35312 3.60278 6.5401 3.11111 7.77778 3.11111H20.2222C21.4599 3.11111 22.6469 3.60278 23.5221 4.47795C24.3972 5.35312 24.8889 6.5401 24.8889 7.77778V20.2222ZM22.8148 7.25926C22.8148 7.66947 22.6932 8.07047 22.4653 8.41155C22.2374 8.75263 21.9134 9.01847 21.5345 9.17545C21.1555 9.33244 20.7384 9.37351 20.3361 9.29348C19.9338 9.21345 19.5642 9.01591 19.2741 8.72585C18.9841 8.43579 18.7865 8.06622 18.7065 7.66389C18.6265 7.26156 18.6676 6.84453 18.8245 6.46555C18.9815 6.08656 19.2474 5.76263 19.5884 5.53473C19.9295 5.30683 20.3305 5.18518 20.7407 5.18518C21.2908 5.18518 21.8184 5.4037 22.2073 5.79267C22.5963 6.18163 22.8148 6.70918 22.8148 7.25926Z" fill="#3A34D5"/>
</svg>
